<svg width="10" height="11" fill="none" xmlns="http://www.w3.org/2000/svg"><g clip-path="url(#a)"><path d="M7.58656 5.22558 2.96126.61308C2.80972.46205 2.56437.4623 2.41308.61387c-.15117.15154-.15078.39702.00078.54818l4.34998 4.33797-4.35013 4.33795c-.15155.15117-.15194.39653-.00079.54803.07584.076.1752.114.27455.114.09911 0 .19807-.0377.27377-.1132l4.62532-4.61237a.38714.38714 0 0 0 .11394-.27441.38791.38791 0 0 0-.11394-.27444Z" fill="#5D71DD"/></g><defs><clipPath id="a"><path fill="#fff" transform="translate(0 .5)" d="M0 0h10v10H0z"/></clipPath></defs></svg>