<svg width="20" height="20" fill="none" xmlns="http://www.w3.org/2000/svg"><g clip-path="url(#a)" fill="#fff"><path d="M17.6975 3.72857v1.84112c-.1323-.22929-.2747-.45328-.4278-.67104-.5358-.76216-1.1848-1.43296-1.9291-1.99381-.7532-.56753-1.5861-1.00887-2.4755-1.31172-.9199-.31322-1.8832-.47203-2.8629-.47203-1.02314 0-2.02664.17284-2.98253.51373-.92382.32943-1.78241.80786-2.55194 1.42203-.76192.60809-1.41503 1.33189-1.94112 2.15127-.53594.83474-.92505 1.74571-1.15651 2.70759-.14872.61807.23175 1.23969.84984 1.38841a1.15449 1.15449 0 0 0 .27023.03221c.51973 0 .99123-.35447 1.11818-.88203.33918-1.40961 1.15438-2.68743 2.29544-3.59812.57007-.45497 1.20564-.80924 1.88907-1.05293.70707-.25214 1.45037-.37999 2.20934-.37999 1.4398 0 2.8068.45653 3.953 1.3202.7756.58444 1.4151 1.34097 1.8667 2.1946h-1.2753c-.6357 0-1.1511.51536-1.1511 1.15108 0 .63572.5154 1.15107 1.1511 1.15107h4.3019c.6358 0 1.1511-.51535 1.1511-1.15107V3.72857c0-.63572-.5153-1.15107-1.1511-1.15107-.6357 0-1.151.51535-1.151 1.15107ZM1.15107 17.4209c.63572 0 1.15107-.5153 1.15107-1.1511V14.421c.68571 1.1935 1.64047 2.2134 2.79884 2.9817 1.45246.9633 3.14445 1.473 4.89362 1.4745.00096 0 .0019.0001.00285.0001h.00505c.0012 0 .0024-.0001.0036-.0001 1.0201-.001 2.0206-.1737 2.9738-.5136.9238-.3295 1.7824-.8079 2.5519-1.422.762-.6081 1.4151-1.3319 1.9412-2.1513.5359-.8347.925-1.7457 1.1565-2.7076.1487-.618-.2317-1.2397-.8499-1.3884-.6181-.1487-1.2396.2318-1.3884.8498-.3392 1.4097-1.1544 2.6875-2.2954 3.5982-.5701.4549-1.2056.8092-1.8891 1.0529-.7063.2518-1.4488.3797-2.20691.3799-1.29696-.0005-2.55091-.3777-3.62638-1.091-.92743-.6151-1.67864-1.4472-2.19267-2.4237h1.27227c.63575 0 1.15108-.5154 1.15108-1.1511s-.51536-1.1511-1.15108-1.1511H1.15107C.51535 10.7582 0 11.2736 0 11.9093v4.3605c0 .6358.51535 1.1511 1.15107 1.1511Z"/></g><defs><clipPath id="a"><path fill="#fff" d="M0 0h20v20H0z"/></clipPath></defs></svg>